<svg xmlns="http://www.w3.org/2000/svg" viewBox="0 0 1887.39 609.64"><defs><style>.cls-1{fill:none;stroke-miterlimit:10;stroke-width:10px;}.cls-1,.cls-2{stroke:#000;}.cls-2{font-size:172.62px;font-family:OpenSans-Light, Open Sans;font-weight:300;}</style></defs><g id="Layer_2" data-name="Layer 2"><g id="Layer_1-2" data-name="Layer 1"><line class="cls-1" x1="585.32" y1="17.33" x2="585.32" y2="567.01"/><text class="cls-2" transform="translate(620.77 148.42)">OMAR<tspan x="0" y="207.14">HASSAN</tspan></text><text class="cls-2" transform="translate(620.77 562.7) scale(0.98 1)">DEVELOPMENTS</text><path d="M549.88,292.17c0,151.85-123.1,274.94-274.94,274.94S0,444,0,292.17,123.09,17.23,274.94,17.23,549.88,140.33,549.88,292.17ZM274.94,63.06C148.4,63.06,45.82,165.63,45.82,292.17S148.4,521.29,274.94,521.29,504.05,418.71,504.05,292.17,401.47,63.06,274.94,63.06Z"/><path d="M286.39,86.28c108.56,6,194.75,95.85,194.75,205.89S395,492.12,286.39,498.06m45.83-56a160.45,160.45,0,0,0,0-299.7M286.39,86V498m45.83-355.65V442"/><path d="M263.48,498.06a205.55,205.55,0,0,1-45.82-7.74V315.08H116.18a160.48,160.48,0,0,0,78.57,116v51.1a206.29,206.29,0,0,1,0-380.06v51.11a160.46,160.46,0,0,0-78.57,116H217.66V94h0a205.56,205.56,0,0,1,45.82-7.75h0V497.51"/></g></g></svg>