<svg xmlns="http://www.w3.org/2000/svg" viewBox="0 0 1902.45 460.8"><defs><style>.cls-1{fill:none;stroke-miterlimit:10;stroke-width:10px;}.cls-1,.cls-2{stroke:#000;}.cls-2{font-size:197.68px;font-family:OpenSans-Light, Open Sans;font-weight:300;}</style></defs><g id="Layer_2" data-name="Layer 2"><g id="Layer_1-2" data-name="Layer 1"><line class="cls-1" x1="423.07" y1="19.66" x2="423.07" y2="408.46"/><text class="cls-2" transform="translate(457.31 169.9)">OMAR HASSAN</text><text class="cls-2" transform="translate(457.31 407.12) scale(0.98 1)">DEVELOPMENTS</text><path d="M388.84,214.08c0,107.38-87,194.43-194.42,194.43S0,321.46,0,214.08,87.05,19.66,194.42,19.66,388.84,106.71,388.84,214.08Zm-194.42-162a162,162,0,1,0,162,162A162,162,0,0,0,194.42,52.07Z"/><path d="M202.52,68.49a145.82,145.82,0,0,1,0,291.19m32.41-39.63a113.46,113.46,0,0,0,0-211.93M202.52,68.27V359.61m32.41-251.49V320.05"/><path d="M186.32,359.68a145.48,145.48,0,0,1-32.4-5.48V230.29H82.16a113.46,113.46,0,0,0,55.56,82v36.14a145.87,145.87,0,0,1,0-268.75v36.13a113.48,113.48,0,0,0-55.56,82h71.76V74h0a144.91,144.91,0,0,1,32.4-5.48h0v290.8"/></g></g></svg>