<svg xmlns="http://www.w3.org/2000/svg" viewBox="0 0 549.88 549.88"><defs><style>.cls-1{fill:#fff;}</style></defs><g id="Layer_2" data-name="Layer 2"><g id="Layer_1-2" data-name="Layer 1"><path class="cls-1" d="M549.88,274.94c0,151.84-123.1,274.94-274.94,274.94S0,426.78,0,274.94,123.09,0,274.94,0,549.88,123.09,549.88,274.94ZM274.94,45.82C148.4,45.82,45.82,148.4,45.82,274.94S148.4,504.05,274.94,504.05,504.05,401.47,504.05,274.94,401.47,45.82,274.94,45.82Z"/><path class="cls-1" d="M286.39,69.05C395,75,481.14,164.9,481.14,274.94S395,474.88,286.39,480.83m45.83-56a160.45,160.45,0,0,0,0-299.7M286.39,68.73v412m45.83-355.65v299.7"/><path class="cls-1" d="M263.48,480.83a206.13,206.13,0,0,1-45.82-7.75V297.85H116.18a160.46,160.46,0,0,0,78.57,116V465a206.29,206.29,0,0,1,0-380.06V136a160.48,160.48,0,0,0-78.57,116H217.66V76.8h0a205.55,205.55,0,0,1,45.82-7.74h0V480.27"/></g></g></svg>